<svg width="100" height="100" viewBox="0 0 100 100" fill="none" xmlns="http://www.w3.org/2000/svg">
<g filter="url(#filter0_d_350_51592)">
<rect x="5" y="4" width="90" height="90" rx="15" fill="white"/>
</g>
<path d="M42 29C39.2583 29 37 31.2583 37 34V64C37 66.7417 39.2583 69 42 69H58.6667C61.4083 69 63.6667 66.7417 63.6667 64V34C63.6667 31.2583 61.4083 29 58.6667 29H42ZM42 32.3333H58.6667C59.5917 32.3333 60.3333 33.075 60.3333 34V64C60.3333 64.925 59.5917 65.6667 58.6667 65.6667H42C41.075 65.6667 40.3333 64.925 40.3333 64V34C40.3333 33.075 41.075 32.3333 42 32.3333ZM50.3333 60.6667C49.4167 60.6667 48.6667 61.4167 48.6667 62.3333C48.6667 63.25 49.4167 64 50.3333 64C51.25 64 52 63.25 52 62.3333C52 61.4167 51.25 60.6667 50.3333 60.6667Z" fill="url(#paint0_linear_350_51592)"/>
<defs>
<filter id="filter0_d_350_51592" x="0" y="0" width="100" height="100" filterUnits="userSpaceOnUse" color-interpolation-filters="sRGB">
<feFlood flood-opacity="0" result="BackgroundImageFix"/>
<feColorMatrix in="SourceAlpha" type="matrix" values="0 0 0 0 0 0 0 0 0 0 0 0 0 0 0 0 0 0 127 0" result="hardAlpha"/>
<feOffset dy="1"/>
<feGaussianBlur stdDeviation="2.5"/>
<feComposite in2="hardAlpha" operator="out"/>
<feColorMatrix type="matrix" values="0 0 0 0 0 0 0 0 0 0 0 0 0 0 0 0 0 0 0.14 0"/>
<feBlend mode="normal" in2="BackgroundImageFix" result="effect1_dropShadow_350_51592"/>
<feBlend mode="normal" in="SourceGraphic" in2="effect1_dropShadow_350_51592" result="shape"/>
</filter>
<linearGradient id="paint0_linear_350_51592" x1="41.9604" y1="36.5988" x2="67.5844" y2="51.8711" gradientUnits="userSpaceOnUse">
<stop stop-color="#9517AF"/>
<stop offset="1" stop-color="#3206D3"/>
</linearGradient>
</defs>
</svg>
