


















































































































































<svg width="100" height="100" viewBox="0 0 100 100" fill="none" xmlns="http://www.w3.org/2000/svg">
<g filter="url(#filter0_d_362_51633)">
<rect x="5" y="4" width="90" height="90" rx="15" fill="white"/>
</g>
<path d="M40.4069 46.2276C41.4659 44.2331 43.4279 42.151 45.9313 40.3666C48.4348 38.5822 51.0429 37.4066 53.2738 37.0562C55.4273 36.716 57.124 37.1717 57.9287 38.3006L60.7583 42.2703C61.563 43.3992 61.4402 45.1518 60.4162 47.0765C59.3572 49.0711 57.3952 51.1531 54.8918 52.9375C52.3884 54.7219 49.7802 55.8975 47.5493 56.248C45.3958 56.5881 43.6991 56.1325 42.8944 55.0036L40.0648 51.0338C39.2601 49.9049 39.3829 48.1524 40.4069 46.2276ZM46.4029 41.0282C41.2944 44.6696 39.4791 48.8122 40.7264 50.5622C41.9738 52.3122 46.482 51.9475 51.5906 48.3061C56.6991 44.6648 58.5145 40.5222 57.2671 38.7722C56.0197 37.0222 51.5115 37.3869 46.4029 41.0282ZM52.393 48.732L54.751 52.0401C56.5498 50.7142 57.9217 49.3248 58.8689 48.0185L56.5321 44.7402C55.4905 46.1187 54.071 47.4885 52.393 48.732ZM51.7314 49.2036C50.0115 50.3883 48.2536 51.2834 46.6107 51.8183L48.9445 55.0925C50.4883 54.6232 52.2451 53.7826 54.0894 52.5117L51.7314 49.2036ZM60.0967 42.7419L58.4414 40.4196C58.3803 41.2351 58.0944 42.1499 57.5866 43.1067C57.4227 43.4157 57.2345 43.7256 57.0293 44.0378L59.3507 47.2947C60.5418 45.3768 60.7799 43.7004 60.0967 42.7419ZM43.556 54.532C44.2393 55.4905 45.9017 55.8122 48.1031 55.3119L45.7816 52.0551C45.4196 52.1473 45.0652 52.224 44.7197 52.2782C43.6495 52.4461 42.6915 52.418 41.9007 52.2097L43.556 54.532Z" fill="#921CB1"/>
<path d="M50 69L41.2507 64.2957C38.7564 62.9576 36.6705 60.9598 35.217 58.5167C33.7634 56.0737 32.997 53.2776 33 50.4286V31.8571C33.0008 31.0996 33.2995 30.3733 33.8307 29.8377C34.3619 29.302 35.0821 29.0008 35.8333 29H64.1667C64.9179 29.0008 65.6381 29.302 66.1693 29.8377C66.7005 30.3733 66.9992 31.0996 67 31.8571V50.4286C67.003 53.2776 66.2366 56.0737 64.783 58.5167C63.3295 60.9598 61.2436 62.9576 58.7493 64.2957L50 69ZM35.8333 31.8571V50.4286C35.831 52.7597 36.4582 55.0475 37.6478 57.0464C38.8373 59.0452 40.5441 60.6797 42.5852 61.7743L50 65.7614L57.4148 61.7757C59.4561 60.681 61.1631 59.0463 62.3526 57.0472C63.5421 55.048 64.1693 52.76 64.1667 50.4286V31.8571H35.8333Z" fill="url(#paint0_linear_362_51633)"/>
<path d="M43.4388 49.7203C44.4648 47.7879 46.3656 45.7708 48.791 44.0421C51.2163 42.3133 53.7431 41.1744 55.9045 40.8349C57.9908 40.5053 59.6346 40.9468 60.4141 42.0404L63.1555 45.8864C63.9351 46.9801 63.8161 48.6779 62.8241 50.5426C61.7981 52.475 59.8973 54.4921 57.4719 56.2209C55.0466 57.9496 52.5198 59.0885 50.3585 59.428C48.2722 59.7576 46.6284 59.3162 45.8488 58.2225L43.1074 54.3765C42.3279 53.2829 42.4468 51.585 43.4388 49.7203ZM49.2479 44.6831C44.2986 48.2108 42.54 52.2242 43.7484 53.9196C44.9569 55.6151 49.3245 55.2617 54.2737 51.7339C59.2229 48.2062 60.9816 44.1928 59.7731 42.4973C58.5647 40.8019 54.1971 41.1553 49.2479 44.6831ZM55.0511 52.1465L57.3355 55.3514C59.0783 54.0669 60.4073 52.7208 61.325 51.4553L59.0611 48.2792C58.052 49.6147 56.6767 50.9418 55.0511 52.1465ZM54.4101 52.6034C52.7439 53.7511 51.0408 54.6183 49.4491 55.1366L51.7102 58.3087C53.2058 57.854 54.9078 57.0396 56.6946 55.8083L54.4101 52.6034ZM62.5145 46.3433L60.9108 44.0934C60.8517 44.8835 60.5747 45.7697 60.0827 46.6967C59.9239 46.996 59.7416 47.2963 59.5428 47.5988L61.7918 50.754C62.9457 48.896 63.1764 47.2719 62.5145 46.3433ZM46.4898 57.7656C47.1517 58.6942 48.7622 59.0059 50.895 58.5212L48.646 55.3659C48.2952 55.4553 47.9518 55.5296 47.6171 55.5821C46.5803 55.7448 45.6523 55.7175 44.8861 55.5157L46.4898 57.7656Z" fill="#921CB1"/>
<defs>
<filter id="filter0_d_362_51633" x="0" y="0" width="100" height="100" filterUnits="userSpaceOnUse" color-interpolation-filters="sRGB">
<feFlood flood-opacity="0" result="BackgroundImageFix"/>
<feColorMatrix in="SourceAlpha" type="matrix" values="0 0 0 0 0 0 0 0 0 0 0 0 0 0 0 0 0 0 127 0" result="hardAlpha"/>
<feOffset dy="1"/>
<feGaussianBlur stdDeviation="2.5"/>
<feComposite in2="hardAlpha" operator="out"/>
<feColorMatrix type="matrix" values="0 0 0 0 0 0 0 0 0 0 0 0 0 0 0 0 0 0 0.14 0"/>
<feBlend mode="normal" in2="BackgroundImageFix" result="effect1_dropShadow_362_51633"/>
<feBlend mode="normal" in="SourceGraphic" in2="effect1_dropShadow_362_51633" result="shape"/>
</filter>
<linearGradient id="paint0_linear_362_51633" x1="39.3245" y1="36.5988" x2="67.3923" y2="57.9281" gradientUnits="userSpaceOnUse">
<stop stop-color="#9517AF"/>
<stop offset="1" stop-color="#3206D3"/>
</linearGradient>
</defs>
</svg>
