<svg width="28" height="28" viewBox="0 0 28 28" fill="none" xmlns="http://www.w3.org/2000/svg">
<path d="M12.25 14.5162L9.98375 12.25L8.75 13.4837L12.25 16.9837L19.25 9.98375L18.0163 8.75L12.25 14.5162Z" fill="#921CB1"/>
<path d="M14 26.5L8.59601 23.6186C7.05542 22.799 5.7671 21.5754 4.86931 20.079C3.97152 18.5826 3.49815 16.87 3.50001 15.125V3.75C3.50047 3.28601 3.68499 2.84116 4.01308 2.51307C4.34117 2.18499 4.78602 2.00046 5.25001 2H22.75C23.214 2.00046 23.6588 2.18499 23.9869 2.51307C24.315 2.84116 24.4995 3.28601 24.5 3.75V15.125C24.5019 16.87 24.0285 18.5826 23.1307 20.079C22.2329 21.5754 20.9446 22.799 19.404 23.6186L14 26.5ZM5.25001 3.75V15.125C5.24855 16.5528 5.63597 17.9541 6.37067 19.1784C7.10538 20.4027 8.15962 21.4038 9.42026 22.0742L14 24.5164L18.5798 22.0751C19.8405 21.4046 20.8949 20.4034 21.6296 19.1789C22.3643 17.9544 22.7516 16.553 22.75 15.125V3.75H5.25001Z" fill="url(#paint0_linear_340_50171)"/>
<defs>
<linearGradient id="paint0_linear_340_50171" x1="7.4063" y1="6.65427" x2="24.6359" y2="19.8574" gradientUnits="userSpaceOnUse">
<stop stop-color="#9517AF"/>
<stop offset="1" stop-color="#3206D3"/>
</linearGradient>
</defs>
</svg>
